<?xml version="1.0" encoding="iso-8859-1"?>
<!-- Generator: Adobe Illustrator 16.0.0, SVG Export Plug-In . SVG Version: 6.00 Build 0)  -->
<!DOCTYPE svg PUBLIC "-//W3C//DTD SVG 1.1//EN" "http://www.w3.org/Graphics/SVG/1.1/DTD/svg11.dtd">
<svg version="1.1" id="Capa_1" xmlns="http://www.w3.org/2000/svg" xmlns:xlink="http://www.w3.org/1999/xlink" x="0px" y="0px"
	 width="349.324px" height="349.324px" viewBox="0 0 349.324 349.324" style="enable-background:new 0 0 349.324 349.324;"
	 xml:space="preserve">
<g>
	<g>
		<path d="M158.557,316.414c1.485,1.341,36.859,32.91,88.873,32.91c5.047,0,10.15-0.31,15.219-0.919
			c56.532-6.83,77.251-43.071,84.568-64.054c4.179-11.918-3.809-24.75-13.903-29.259L266.954,225.6
			c-3.194-1.411-7.008-2.153-11.015-2.153c-8.19,0-16.417,3.042-21.464,7.932l-20.901,20.257c-3.123,3.016-8.643,5.037-13.751,5.037
			c-2.184,0-4.113-0.386-5.565-1.122c-14.102-7.079-36.295-21.201-61.857-48.307c-22.698-24.096-33.466-40.584-38.499-50.173
			c-2.818-5.365,0.127-14.67,4.535-19.096l18.613-18.596c7.726-7.718,11.217-21.955,7.932-32.39l-20.919-66.433
			C100.887,10.453,90.142,0,77.611,0C60.288,0.587,35.939,6.787,18.443,33.048c-27.05,40.596-25.43,118.769,24.379,174.256
			C88.997,258.784,157.971,315.947,158.557,316.414z M28.284,39.619c14.703-22.056,35.289-27.287,49.978-27.784
			c5.987,0.025,12.695,6.614,14.487,12.276l20.919,66.433c1.96,6.256-0.371,15.808-5.017,20.444l-18.603,18.598
			c-7.592,7.607-12.081,22.681-6.652,32.992c5.403,10.26,16.772,27.74,40.362,52.78c26.74,28.36,50.196,43.265,65.158,50.77
			c3.072,1.544,6.835,2.366,10.907,2.366c8.227,0,16.646-3.209,21.973-8.358l20.9-20.256c4.18-4.047,14.071-5.835,19.429-3.453
			l66.344,29.488c5.062,2.254,9.455,9.084,7.546,14.513c-6.408,18.393-24.659,50.15-74.804,56.208
			c-4.586,0.554-9.211,0.833-13.797,0.833c-46.997,0-79.694-28.742-81.123-30.017c-0.681-0.559-68.896-57.051-114.676-108.064
			C7.066,149.745,3.582,76.703,28.284,39.619z"/>
		<path d="M141.478,176.501c-2.687,2.523-4.243,5.941-4.354,9.647c-0.109,3.692,1.216,7.206,3.752,9.897l18.89,20.083
			c2.607,2.758,6.279,4.347,10.072,4.347c3.514,0,6.896-1.33,9.471-3.752l44.066-41.478c0.711-0.665,2.071-0.609,2.717,0.097
			l5.388,5.805c2.915,3.179,5.865,3.849,7.82,3.849c3.493,0,7.967-2.306,9.089-8.811l10.258-58.528
			c0.65-3.715-0.208-7.221-2.438-9.877c-2.528-3.016-6.124-4.438-10.542-3.958l-58.909,6.573c-4.367,0.49-7.607,2.734-8.854,6.154
			c-1.249,3.42-0.247,7.221,2.77,10.42l4.941,5.269c0.37,0.381,0.554,0.879,0.538,1.414c-0.021,0.523-0.233,1.011-0.619,1.376
			L141.478,176.501z M198.011,134.008c0.106-3.688-1.234-7.203-3.753-9.889c0,0-0.508-0.539-1.133-1.193
			c-0.624-0.655,2.387-1.58,6.724-2.062l39.258-4.362c4.337-0.482,7.241,2.607,6.484,6.914l-6.824,38.938
			c-0.752,4.298-1.955,7.149-2.682,6.368l-1.31-1.415c-4.794-5.205-14.346-5.545-19.535-0.688l-44.082,41.481
			c-0.325,0.32-0.815,0.493-1.328,0.493c-0.584,0-1.114-0.214-1.462-0.579l-18.887-20.078c-0.355-0.381-0.539-0.879-0.523-1.417
			c0.016-0.523,0.229-1.011,0.617-1.371l44.064-41.477C196.34,141.135,197.884,137.705,198.011,134.008z"/>
	</g>
</g>
<g>
</g>
<g>
</g>
<g>
</g>
<g>
</g>
<g>
</g>
<g>
</g>
<g>
</g>
<g>
</g>
<g>
</g>
<g>
</g>
<g>
</g>
<g>
</g>
<g>
</g>
<g>
</g>
<g>
</g>
</svg>
